<svg version="1.1" id="Layer_1" xmlns="http://www.w3.org/2000/svg" xmlns:xlink="http://www.w3.org/1999/xlink" x="0px" y="0px"
	 width="100%" viewBox="0 0 195 195" enable-background="new 0 0 195 195" xml:space="preserve">
<path fill="#020202" opacity="1.000000" stroke="none" 
	d="
M114.000000,196.000000 
	C76.024048,196.000000 38.548092,196.000000 1.036069,196.000000 
	C1.036069,131.065750 1.036069,66.131462 1.036069,1.098589 
	C65.892464,1.098589 130.785126,1.098589 195.838898,1.098589 
	C195.838898,65.999680 195.838898,130.999802 195.838898,196.000000 
	C168.798386,196.000000 141.649185,196.000000 114.000000,196.000000 
M133.787430,166.561935 
	C134.104553,167.296143 134.421692,168.030350 134.738815,168.764557 
	C135.494141,168.240234 136.249481,167.715927 137.746933,166.963272 
	C148.015472,164.037888 158.086227,160.679657 167.178162,153.517136 
	C188.450195,136.881119 195.412643,114.154572 192.674515,88.553787 
	C190.359558,66.909538 178.815491,50.253716 160.407898,39.224983 
	C159.619171,41.139587 159.250916,42.799419 158.294418,43.984459 
	C157.902847,44.469608 155.481445,44.238514 155.300125,43.794983 
	C154.795990,42.561802 154.982330,41.046345 155.196960,40.158703 
	C158.279434,39.556938 158.414566,39.323997 156.310486,36.897449 
	C126.651291,23.410038 97.753021,28.585909 75.121742,51.354698 
	C88.004677,62.308643 96.735458,76.141235 103.005432,91.649818 
	C112.767715,115.796516 115.331070,141.207504 116.073616,167.635818 
	C117.316650,168.893005 118.559692,170.150208 119.802727,171.407394 
	C120.536232,170.336700 121.269745,169.265991 122.734306,168.064194 
	C124.777473,167.041779 126.820633,166.019348 129.621780,165.012253 
	C131.081390,165.341293 132.541000,165.670349 133.787430,166.561935 
M66.396454,46.566303 
	C62.943287,46.009350 59.490124,45.452396 55.628639,44.420395 
	C54.319489,44.688721 53.010338,44.957047 51.070583,45.354618 
	C52.085278,46.060745 52.573524,46.400520 53.500832,47.218487 
	C54.515972,47.923466 55.531113,48.628445 56.661476,49.353622 
	C56.661476,49.353622 56.685162,49.468178 56.667870,50.149609 
	C59.120708,53.096962 61.573547,56.044312 64.172813,59.680630 
	C64.781601,61.120319 65.390388,62.560009 65.387001,64.361275 
	C49.380886,94.768562 59.125145,141.149323 85.358711,153.448715 
	C84.545578,139.161804 84.444954,125.524521 82.833282,112.068214 
	C80.799164,95.084717 75.476852,78.938736 66.894714,63.284908 
	C67.608742,61.880573 68.322769,60.476242 69.889809,57.394222 
	C75.406128,67.275085 80.864044,75.619148 84.920380,84.596512 
	C95.383591,107.753487 99.016838,132.381821 99.138008,157.634598 
	C99.167076,163.691406 99.633713,164.064636 107.241356,164.475784 
	C105.151077,149.008713 103.882561,133.654938 100.848175,118.658463 
	C96.931328,99.300774 90.554955,80.669823 78.540359,64.500519 
	C76.230026,61.391258 74.096886,58.150333 72.553238,54.546074 
	C73.436493,53.278412 74.319740,52.010754 75.375160,50.495995 
	C72.303093,49.240562 69.639236,48.151947 66.396454,46.566303 
M36.106491,54.560112 
	C38.788303,52.460239 41.470116,50.360363 44.151924,48.260490 
	C44.046631,47.677933 43.941338,47.095375 43.836040,46.512821 
	C40.396122,46.829708 36.682518,46.417500 33.563190,47.588428 
	C19.291903,52.945560 12.542164,64.882629 8.212750,78.445969 
	C6.375734,84.201027 5.582644,90.289307 4.315104,96.226143 
	C4.777378,96.362724 5.239651,96.499313 5.701925,96.635895 
	C13.831294,81.440697 22.869143,66.904915 36.106491,54.560112 
z"/>
<path fill="#F4F4F4" opacity="1.000000" stroke="none" 
	d="
M154.895920,39.642387 
	C154.982330,41.046345 154.795990,42.561802 155.300125,43.794983 
	C155.481445,44.238514 157.902847,44.469608 158.294418,43.984459 
	C159.250916,42.799419 159.619171,41.139587 160.407898,39.224983 
	C178.815491,50.253716 190.359558,66.909538 192.674515,88.553787 
	C195.412643,114.154572 188.450195,136.881119 166.677887,153.404907 
	C166.041351,153.132416 165.905060,152.972168 165.554382,152.542664 
	C164.773422,151.573669 164.307327,150.750870 163.624649,150.193253 
	C156.949860,144.741409 137.280334,147.142319 132.098312,153.978378 
	C130.302124,156.347885 128.413254,158.647125 126.241547,160.956512 
	C125.482109,160.919342 125.047852,160.904129 124.736046,160.554901 
	C130.812897,150.748093 137.479187,141.851135 146.602249,135.177124 
	C151.369919,131.689316 156.327789,128.098145 162.863510,131.267136 
	C162.752396,124.483887 157.781891,118.803787 151.058792,116.988937 
	C143.556442,114.963745 137.169449,117.946152 131.117416,121.549187 
	C126.244431,124.450279 121.841789,128.141388 118.001038,130.923737 
	C118.001038,126.204735 118.001038,121.103867 118.365448,115.926170 
	C119.462914,116.663284 120.225403,117.452866 120.923569,118.295723 
	C123.087311,120.907852 126.114243,122.239433 128.732880,120.158302 
	C130.540695,118.721565 131.907806,115.557899 131.842453,113.211357 
	C131.744400,109.692001 128.469574,107.885849 125.373581,108.920135 
	C122.797119,109.780876 120.798073,112.370041 118.675873,113.736496 
	C118.517799,107.489296 118.928246,101.551872 117.750633,95.948174 
	C116.419876,89.615799 114.121468,83.362923 111.317253,77.520203 
	C110.056221,74.892769 106.545380,73.345116 104.281998,71.492958 
	C104.918434,77.144501 105.501915,81.937454 105.982323,86.740707 
	C106.260910,89.526100 105.924728,92.449661 106.642532,95.100555 
	C109.135323,104.306496 112.902107,113.265564 114.450340,122.605949 
	C116.715729,136.272888 117.479370,150.188522 118.893234,163.997131 
	C119.114082,166.154129 118.787354,167.718491 116.024788,166.932678 
	C115.331070,141.207504 112.767715,115.796516 103.005432,91.649818 
	C96.735458,76.141235 88.004677,62.308643 75.121742,51.354698 
	C97.753021,28.585909 126.651291,23.410038 156.755859,37.248962 
	C156.432800,38.281113 155.664368,38.961750 154.895920,39.642387 
M144.186386,44.843616 
	C143.418060,44.539562 142.671295,44.059929 141.877594,43.962479 
	C138.778442,43.581978 136.734970,45.196823 137.202484,48.122089 
	C137.437531,49.592804 139.658890,51.569775 141.230972,51.833473 
	C144.616653,52.401394 145.277161,49.843132 144.996262,46.987534 
	C144.897110,45.979725 144.883469,44.963505 145.089691,44.752426 
	C146.644852,44.664936 148.302277,44.847839 149.691727,44.322277 
	C150.099213,44.168152 150.235977,41.382359 149.627930,40.901566 
	C148.679520,40.151634 146.653549,39.765785 145.720001,40.312130 
	C144.974747,40.748280 145.177399,42.804092 144.186386,44.843616 
M141.448990,102.698524 
	C140.163025,104.943466 137.895020,107.154381 137.815811,109.441124 
	C137.689499,113.087662 140.915939,115.056152 144.264099,114.724014 
	C147.901093,114.363220 150.455643,111.730309 149.909927,107.825645 
	C149.321518,103.615517 146.548157,101.534218 141.448990,102.698524 
M126.028717,99.653755 
	C126.875732,104.853912 129.408981,106.965530 133.860367,105.959328 
	C137.721420,105.086563 138.953522,102.033920 137.889069,98.824692 
	C137.249222,96.895584 134.967194,94.736313 133.003906,94.191597 
	C129.532669,93.228493 127.220726,95.537025 126.028717,99.653755 
M154.896713,89.856163 
	C152.131485,86.737434 149.075104,86.184250 145.922897,89.148926 
	C143.590118,91.342934 142.770309,94.439156 145.227402,96.567200 
	C147.013672,98.114258 150.448425,99.324692 152.489731,98.660759 
	C155.964386,97.530617 157.095398,94.240547 154.896713,89.856163 
M135.653519,79.923439 
	C132.674484,81.491127 131.809921,84.191078 133.017471,86.971581 
	C133.735611,88.625153 135.793839,90.674194 137.339157,90.751328 
	C139.416016,90.855003 142.166534,89.733948 143.512527,88.175377 
	C144.519226,87.009689 144.422363,84.005981 143.645584,82.380409 
	C142.282166,79.527184 139.645355,78.095291 135.653519,79.923439 
M129.622360,86.024925 
	C131.503860,83.064651 131.308014,79.910393 128.412796,78.267654 
	C126.489197,77.176216 123.031532,76.949394 121.252869,78.006004 
	C119.748825,78.899467 118.894859,82.277458 119.125015,84.407661 
	C119.589462,88.706406 124.573570,89.636002 129.622360,86.024925 
M159.383224,75.988983 
	C156.822418,76.124817 154.071777,75.765594 151.793839,76.639084 
	C150.877090,76.990608 150.311111,80.251350 150.785324,81.826927 
	C151.820465,85.266151 154.814392,86.345993 157.952408,84.894424 
	C161.737686,83.143448 161.864899,79.979988 159.383224,75.988983 
M144.423538,66.098999 
	C143.226654,66.600540 141.328354,66.809166 140.972290,67.661827 
	C140.110443,69.725708 139.087219,72.449608 139.810837,74.220146 
	C140.399643,75.660858 143.662628,77.103012 145.310287,76.716003 
	C147.038315,76.310120 149.597656,73.516174 149.383163,72.142242 
	C149.052979,70.027374 146.666367,68.233566 144.423538,66.098999 
M132.102356,64.048950 
	C131.441727,64.014267 130.781418,63.959301 130.120392,63.948219 
	C125.907249,63.877579 124.584618,66.378471 125.002823,70.056656 
	C125.454765,74.031517 128.394272,74.651276 131.577271,74.069023 
	C135.936569,73.271591 136.496155,68.594688 132.102356,64.048950 
M146.542130,56.155106 
	C145.853958,57.966511 144.093307,60.465382 144.715851,61.436577 
	C145.789520,63.111507 148.476776,64.864105 150.237808,64.638596 
	C151.676285,64.454407 153.899582,61.326096 153.747940,59.691093 
	C153.434814,56.315159 150.785233,54.837822 146.542130,56.155106 
M158.802933,72.945160 
	C160.822952,71.929276 163.468033,71.355141 164.619705,69.725571 
	C165.271179,68.803795 163.964218,65.252853 162.636795,64.519211 
	C161.241501,63.748066 158.038498,64.229210 156.921448,65.399841 
	C154.700974,67.726799 155.251358,70.577950 158.802933,72.945160 
M138.397491,54.084457 
	C135.065552,52.188053 132.176682,52.563671 131.156311,56.505577 
	C130.771378,57.992634 131.726913,60.709480 132.948334,61.485600 
	C134.214081,62.289879 137.650406,62.055515 138.169220,61.149025 
	C139.162781,59.413017 138.762329,56.879196 138.397491,54.084457 
M149.364609,48.737316 
	C150.607697,50.492332 151.561981,52.693138 153.238434,53.779209 
	C153.893326,54.203487 156.858719,52.442471 157.492859,51.081074 
	C158.001160,49.989788 156.645325,46.683323 155.998108,46.649788 
	C153.944427,46.543388 151.835205,47.509132 149.364609,48.737316 
M159.240723,56.760807 
	C159.161560,59.810799 160.825104,61.671146 163.676041,61.375267 
	C165.052032,61.232456 166.979248,59.456295 167.290771,58.104809 
	C167.560852,56.933125 165.921143,54.148521 165.095078,54.136318 
	C163.267654,54.109310 161.421097,55.377548 159.240723,56.760807 
M121.138283,92.230103 
	C120.555809,92.312027 119.460892,92.439957 119.463531,92.469345 
	C119.773003,95.916740 120.163887,99.356819 120.628944,103.496513 
	C125.235641,99.072014 125.307762,96.700447 121.138283,92.230103 
M160.581131,50.173058 
	C162.063522,49.936413 163.722977,50.007423 164.938782,49.307632 
	C165.407471,49.037857 165.301682,46.646721 164.663986,45.898617 
	C164.044464,45.171825 161.553696,44.828140 161.368332,45.155743 
	C160.617188,46.483215 160.437698,48.134140 160.581131,50.173058 
z"/>
<path fill="#F5F5F5" opacity="1.000000" stroke="none" 
	d="
M66.880219,64.006302 
	C75.476852,78.938736 80.799164,95.084717 82.833282,112.068214 
	C84.444954,125.524521 84.545578,139.161804 85.358711,153.448715 
	C59.125145,141.149323 49.380886,94.768562 65.913300,64.188835 
	C66.439598,64.016396 66.880219,64.006302 66.880219,64.006302 
z"/>
<path fill="#070707" opacity="1.000000" stroke="none" 
	d="
M118.001038,116.003006 
	C118.001038,121.103867 118.001038,126.204735 118.001038,130.923737 
	C121.841789,128.141388 126.244431,124.450279 131.117416,121.549187 
	C137.169449,117.946152 143.556442,114.963745 151.058792,116.988937 
	C157.781891,118.803787 162.752396,124.483887 162.863510,131.267136 
	C156.327789,128.098145 151.369919,131.689316 146.602249,135.177124 
	C137.479187,141.851135 130.812897,150.748093 124.459671,160.739838 
	C123.695686,163.666077 119.226494,164.856003 122.003250,168.195297 
	C121.269745,169.265991 120.536232,170.336700 119.802727,171.407394 
	C118.559692,170.150208 117.316650,168.893005 116.049202,167.284241 
	C118.787354,167.718491 119.114082,166.154129 118.893234,163.997131 
	C117.479370,150.188522 116.715729,136.272888 114.450340,122.605949 
	C112.902107,113.265564 109.135323,104.306496 106.642532,95.100555 
	C105.924728,92.449661 106.260910,89.526100 105.982323,86.740707 
	C105.501915,81.937454 104.918434,77.144501 104.281998,71.492958 
	C106.545380,73.345116 110.056221,74.892769 111.317253,77.520203 
	C114.121468,83.362923 116.419876,89.615799 117.750633,95.948174 
	C118.928246,101.551872 118.517799,107.489296 118.513626,113.919998 
	C118.146210,115.041405 118.073624,115.522209 118.001038,116.003006 
z"/>
<path fill="#ECECEC" opacity="1.000000" stroke="none" 
	d="
M66.887466,63.645607 
	C66.880219,64.006302 66.439598,64.016396 66.219383,64.008049 
	C65.390388,62.560009 64.781601,61.120319 64.446762,59.297066 
	C65.499214,57.893669 66.277733,56.873833 67.347931,55.973694 
	C69.491791,58.118637 70.772850,58.381062 71.134842,55.012177 
	C71.382805,54.983017 71.881996,54.970150 71.881996,54.970150 
	C74.096886,58.150333 76.230026,61.391258 78.540359,64.500519 
	C90.554955,80.669823 96.931328,99.300774 100.848175,118.658463 
	C103.882561,133.654938 105.151077,149.008713 107.241356,164.475784 
	C99.633713,164.064636 99.167076,163.691406 99.138008,157.634598 
	C99.016838,132.381821 95.383591,107.753487 84.920380,84.596512 
	C80.864044,75.619148 75.406128,67.275085 69.889809,57.394222 
	C68.322769,60.476242 67.608742,61.880573 66.887466,63.645607 
z"/>
<path fill="#EFEFEF" opacity="1.000000" stroke="none" 
	d="
M35.836315,54.792606 
	C22.869143,66.904915 13.831294,81.440697 5.701925,96.635895 
	C5.239651,96.499313 4.777378,96.362724 4.315104,96.226143 
	C5.582644,90.289307 6.375734,84.201027 8.212750,78.445969 
	C12.542164,64.882629 19.291903,52.945560 33.563190,47.588428 
	C36.682518,46.417500 40.396122,46.829708 43.836040,46.512821 
	C43.941338,47.095375 44.046631,47.677933 44.151924,48.260490 
	C41.470116,50.360363 38.788303,52.460239 35.836315,54.792606 
z"/>
<path fill="#F4F4F4" opacity="1.000000" stroke="none" 
	d="
M166.363434,153.547729 
	C158.086227,160.679657 148.015472,164.037888 137.106293,167.001251 
	C136.064636,166.732697 135.663620,166.426147 135.587616,166.040771 
	C138.384140,164.221252 140.855667,162.480576 143.673065,160.602844 
	C150.031281,158.021088 156.043640,155.576370 162.429459,153.151947 
	C163.791534,153.052109 164.780151,152.932007 165.768768,152.811905 
	C165.905060,152.972168 166.041351,153.132416 166.363434,153.547729 
z"/>
<path fill="#E2E2E2" opacity="1.000000" stroke="none" 
	d="
M122.368774,168.129745 
	C119.226494,164.856003 123.695686,163.666077 124.337219,161.073853 
	C125.047852,160.904129 125.482109,160.919342 126.284256,161.329651 
	C128.506332,160.781967 130.447159,159.976669 132.199570,158.872360 
	C139.374329,154.351135 146.992172,151.066147 155.558746,150.604568 
	C156.988144,150.527557 158.473679,151.492264 159.502411,152.002029 
	C157.769699,152.050995 156.334335,151.723068 155.189941,152.158981 
	C151.043488,153.738464 146.994690,155.574295 142.864594,157.322784 
	C142.820129,157.332169 142.755737,157.263107 142.407166,156.893661 
	C138.766449,158.455261 135.474319,160.386292 131.888809,162.418274 
	C130.684891,163.345139 129.774353,164.171036 128.863800,164.996933 
	C126.820633,166.019348 124.777473,167.041779 122.368774,168.129745 
z"/>
<path fill="#F3F3F3" opacity="1.000000" stroke="none" 
	d="
M67.056244,55.854000 
	C66.277733,56.873833 65.499214,57.893669 64.373550,58.952583 
	C61.573547,56.044312 59.120708,53.096962 57.005035,49.661606 
	C57.878971,48.517700 58.415741,47.861797 58.952511,47.205898 
	C58.666668,47.000839 58.380825,46.795780 58.094982,46.590725 
	C57.578739,47.504959 57.062496,48.419193 56.546249,49.333427 
	C55.531113,48.628445 54.515972,47.923466 53.513451,46.784779 
	C54.363029,45.865860 55.199993,45.380650 56.036957,44.895439 
	C59.490124,45.452396 62.943287,46.009350 66.539566,47.140709 
	C66.435036,48.865154 66.187393,50.015194 65.607574,51.028481 
	C64.284531,50.571060 63.293659,50.250389 61.204220,49.574200 
	C63.784603,52.343204 65.420425,54.098602 67.056244,55.854000 
z"/>
<path fill="#F4F4F4" opacity="1.000000" stroke="none" 
	d="
M65.939743,51.165234 
	C66.187393,50.015194 66.435036,48.865154 66.829025,47.389221 
	C69.639236,48.151947 72.303093,49.240562 75.375160,50.495995 
	C74.319740,52.010754 73.436493,53.278412 72.217621,54.758110 
	C71.881996,54.970150 71.382805,54.983017 70.820122,54.943573 
	C68.818207,53.657833 67.378975,52.411533 65.939743,51.165234 
z"/>
<path fill="#070707" opacity="1.000000" stroke="none" 
	d="
M129.242798,165.004593 
	C129.774353,164.171036 130.684891,163.345139 132.229630,162.691772 
	C133.242355,163.909744 133.620865,164.955170 133.999695,166.000305 
	C134.000000,166.000000 134.000610,165.999390 134.000610,165.999390 
	C132.541000,165.670349 131.081390,165.341293 129.242798,165.004593 
z"/>
<path fill="#070707" opacity="1.000000" stroke="none" 
	d="
M135.262619,166.119598 
	C135.663620,166.426147 136.064636,166.732697 136.735229,167.115417 
	C136.249481,167.715927 135.494141,168.240234 134.738815,168.764557 
	C134.421692,168.030350 134.104553,167.296143 133.894012,166.280670 
	C134.000610,165.999390 134.000000,166.000000 134.316177,166.022888 
	C134.842453,166.070389 135.052536,166.094986 135.262619,166.119598 
z"/>
<path fill="#ECECEC" opacity="1.000000" stroke="none" 
	d="
M55.832798,44.657917 
	C55.199993,45.380650 54.363029,45.865860 53.293922,46.545685 
	C52.573524,46.400520 52.085278,46.060745 51.070583,45.354618 
	C53.010338,44.957047 54.319489,44.688721 55.832798,44.657917 
z"/>
<path fill="#1B1B1B" opacity="1.000000" stroke="none" 
	d="
M155.046448,39.900543 
	C155.664368,38.961750 156.432800,38.281113 157.118637,37.294666 
	C158.414566,39.323997 158.279434,39.556938 155.046448,39.900543 
z"/>
<path fill="#111111" opacity="1.000000" stroke="none" 
	d="
M159.933289,151.975616 
	C158.473679,151.492264 156.988144,150.527557 155.558746,150.604568 
	C146.992172,151.066147 139.374329,154.351135 132.199570,158.872360 
	C130.447159,159.976669 128.506332,160.781967 126.609421,161.351593 
	C128.413254,158.647125 130.302124,156.347885 132.098312,153.978378 
	C137.280334,147.142319 156.949860,144.741409 163.624649,150.193253 
	C164.307327,150.750870 164.773422,151.573669 165.554382,152.542664 
	C164.780151,152.932007 163.791534,153.052109 162.250580,152.887634 
	C161.109909,152.393890 160.521606,152.184753 159.933289,151.975616 
z"/>
<path fill="#0A0A0A" opacity="1.000000" stroke="none" 
	d="
M118.365448,115.926170 
	C118.073624,115.522209 118.146210,115.041405 118.381027,114.377106 
	C120.798073,112.370041 122.797119,109.780876 125.373581,108.920135 
	C128.469574,107.885849 131.744400,109.692001 131.842453,113.211357 
	C131.907806,115.557899 130.540695,118.721565 128.732880,120.158302 
	C126.114243,122.239433 123.087311,120.907852 120.923569,118.295723 
	C120.225403,117.452866 119.462914,116.663284 118.365448,115.926170 
z"/>
<path fill="#0E0E0E" opacity="1.000000" stroke="none" 
	d="
M141.773468,102.497826 
	C146.548157,101.534218 149.321518,103.615517 149.909927,107.825645 
	C150.455643,111.730309 147.901093,114.363220 144.264099,114.724014 
	C140.915939,115.056152 137.689499,113.087662 137.815811,109.441124 
	C137.895020,107.154381 140.163025,104.943466 141.773468,102.497826 
z"/>
<path fill="#090909" opacity="1.000000" stroke="none" 
	d="
M126.060547,99.259972 
	C127.220726,95.537025 129.532669,93.228493 133.003906,94.191597 
	C134.967194,94.736313 137.249222,96.895584 137.889069,98.824692 
	C138.953522,102.033920 137.721420,105.086563 133.860367,105.959328 
	C129.408981,106.965530 126.875732,104.853912 126.060547,99.259972 
z"/>
<path fill="#0E0E0E" opacity="1.000000" stroke="none" 
	d="
M155.026886,90.227158 
	C157.095398,94.240547 155.964386,97.530617 152.489731,98.660759 
	C150.448425,99.324692 147.013672,98.114258 145.227402,96.567200 
	C142.770309,94.439156 143.590118,91.342934 145.922897,89.148926 
	C149.075104,86.184250 152.131485,86.737434 155.026886,90.227158 
z"/>
<path fill="#0B0B0B" opacity="1.000000" stroke="none" 
	d="
M135.955780,79.690048 
	C139.645355,78.095291 142.282166,79.527184 143.645584,82.380409 
	C144.422363,84.005981 144.519226,87.009689 143.512527,88.175377 
	C142.166534,89.733948 139.416016,90.855003 137.339157,90.751328 
	C135.793839,90.674194 133.735611,88.625153 133.017471,86.971581 
	C131.809921,84.191078 132.674484,81.491127 135.955780,79.690048 
z"/>
<path fill="#0B0B0B" opacity="1.000000" stroke="none" 
	d="
M129.355347,86.294159 
	C124.573570,89.636002 119.589462,88.706406 119.125015,84.407661 
	C118.894859,82.277458 119.748825,78.899467 121.252869,78.006004 
	C123.031532,76.949394 126.489197,77.176216 128.412796,78.267654 
	C131.308014,79.910393 131.503860,83.064651 129.355347,86.294159 
z"/>
<path fill="#0B0B0B" opacity="1.000000" stroke="none" 
	d="
M159.667877,76.285339 
	C161.864899,79.979988 161.737686,83.143448 157.952408,84.894424 
	C154.814392,86.345993 151.820465,85.266151 150.785324,81.826927 
	C150.311111,80.251350 150.877090,76.990608 151.793839,76.639084 
	C154.071777,75.765594 156.822418,76.124817 159.667877,76.285339 
z"/>
<path fill="#0D0D0D" opacity="1.000000" stroke="none" 
	d="
M144.787872,66.201271 
	C146.666367,68.233566 149.052979,70.027374 149.383163,72.142242 
	C149.597656,73.516174 147.038315,76.310120 145.310287,76.716003 
	C143.662628,77.103012 140.399643,75.660858 139.810837,74.220146 
	C139.087219,72.449608 140.110443,69.725708 140.972290,67.661827 
	C141.328354,66.809166 143.226654,66.600540 144.787872,66.201271 
z"/>
<path fill="#080808" opacity="1.000000" stroke="none" 
	d="
M132.475861,64.230492 
	C136.496155,68.594688 135.936569,73.271591 131.577271,74.069023 
	C128.394272,74.651276 125.454765,74.031517 125.002823,70.056656 
	C124.584618,66.378471 125.907249,63.877579 130.120392,63.948219 
	C130.781418,63.959301 131.441727,64.014267 132.475861,64.230492 
z"/>
<path fill="#0A0A0A" opacity="1.000000" stroke="none" 
	d="
M146.891327,56.038727 
	C150.785233,54.837822 153.434814,56.315159 153.747940,59.691093 
	C153.899582,61.326096 151.676285,64.454407 150.237808,64.638596 
	C148.476776,64.864105 145.789520,63.111507 144.715851,61.436577 
	C144.093307,60.465382 145.853958,57.966511 146.891327,56.038727 
z"/>
<path fill="#090909" opacity="1.000000" stroke="none" 
	d="
M158.420898,72.787292 
	C155.251358,70.577950 154.700974,67.726799 156.921448,65.399841 
	C158.038498,64.229210 161.241501,63.748066 162.636795,64.519211 
	C163.964218,65.252853 165.271179,68.803795 164.619705,69.725571 
	C163.468033,71.355141 160.822952,71.929276 158.420898,72.787292 
z"/>
<path fill="#080808" opacity="1.000000" stroke="none" 
	d="
M138.668900,54.380440 
	C138.762329,56.879196 139.162781,59.413017 138.169220,61.149025 
	C137.650406,62.055515 134.214081,62.289879 132.948334,61.485600 
	C131.726913,60.709480 130.771378,57.992634 131.156311,56.505577 
	C132.176682,52.563671 135.065552,52.188053 138.668900,54.380440 
z"/>
<path fill="#131313" opacity="1.000000" stroke="none" 
	d="
M149.556030,48.398865 
	C151.835205,47.509132 153.944427,46.543388 155.998108,46.649788 
	C156.645325,46.683323 158.001160,49.989788 157.492859,51.081074 
	C156.858719,52.442471 153.893326,54.203487 153.238434,53.779209 
	C151.561981,52.693138 150.607697,50.492332 149.556030,48.398865 
z"/>
<path fill="#0B0B0B" opacity="1.000000" stroke="none" 
	d="
M144.830795,43.951122 
	C144.883469,44.963505 144.897110,45.979725 144.996262,46.987534 
	C145.277161,49.843132 144.616653,52.401394 141.230972,51.833473 
	C139.658890,51.569775 137.437531,49.592804 137.202484,48.122089 
	C136.734970,45.196823 138.778442,43.581978 141.877594,43.962479 
	C142.671295,44.059929 143.418060,44.539562 144.541122,44.468998 
	C144.895859,44.094379 144.830795,43.951122 144.830795,43.951122 
z"/>
<path fill="#111111" opacity="1.000000" stroke="none" 
	d="
M159.411530,56.439148 
	C161.421097,55.377548 163.267654,54.109310 165.095078,54.136318 
	C165.921143,54.148521 167.560852,56.933125 167.290771,58.104809 
	C166.979248,59.456295 165.052032,61.232456 163.676041,61.375267 
	C160.825104,61.671146 159.161560,59.810799 159.411530,56.439148 
z"/>
<path fill="#171717" opacity="1.000000" stroke="none" 
	d="
M121.472855,92.460938 
	C125.307762,96.700447 125.235641,99.072014 120.628944,103.496513 
	C120.163887,99.356819 119.773003,95.916740 119.463531,92.469345 
	C119.460892,92.439957 120.555809,92.312027 121.472855,92.460938 
z"/>
<path fill="#171717" opacity="1.000000" stroke="none" 
	d="
M160.314209,49.919392 
	C160.437698,48.134140 160.617188,46.483215 161.368332,45.155743 
	C161.553696,44.828140 164.044464,45.171825 164.663986,45.898617 
	C165.301682,46.646721 165.407471,49.037857 164.938782,49.307632 
	C163.722977,50.007423 162.063522,49.936413 160.314209,49.919392 
z"/>
<path fill="#181818" opacity="1.000000" stroke="none" 
	d="
M144.960236,44.351776 
	C144.830795,43.951122 144.895859,44.094379 144.927582,44.117680 
	C145.177399,42.804092 144.974747,40.748280 145.720001,40.312130 
	C146.653549,39.765785 148.679520,40.151634 149.627930,40.901566 
	C150.235977,41.382359 150.099213,44.168152 149.691727,44.322277 
	C148.302277,44.847839 146.644852,44.664936 144.960236,44.351776 
z"/>
<path fill="#1B1B1B" opacity="1.000000" stroke="none" 
	d="
M65.607574,51.028481 
	C67.378975,52.411533 68.818207,53.657833 70.572159,54.972733 
	C70.772850,58.381062 69.491791,58.118637 67.347931,55.973694 
	C65.420425,54.098602 63.784603,52.343204 61.204220,49.574200 
	C63.293659,50.250389 64.284531,50.571060 65.607574,51.028481 
z"/>
<path fill="#0E0E0E" opacity="1.000000" stroke="none" 
	d="
M159.502411,152.002014 
	C160.521606,152.184753 161.109909,152.393890 161.877106,152.867340 
	C156.043640,155.576370 150.031281,158.021088 143.580322,160.169373 
	C143.096054,159.580948 143.050400,159.288971 142.974319,158.576477 
	C142.932281,157.875092 142.920670,157.594238 142.909042,157.313385 
	C146.994690,155.574295 151.043488,153.738464 155.189941,152.158981 
	C156.334335,151.723068 157.769699,152.050995 159.502411,152.002014 
z"/>
<path fill="#020202" opacity="1.000000" stroke="none" 
	d="
M143.004761,158.997009 
	C143.050400,159.288971 143.096054,159.580948 143.234451,160.306427 
	C140.855667,162.480576 138.384140,164.221252 135.587616,166.040771 
	C135.052536,166.094986 134.842453,166.070389 134.315872,166.023193 
	C133.620865,164.955170 133.242355,163.909744 132.523010,162.590820 
	C135.474319,160.386292 138.766449,158.455261 142.251938,157.192596 
	C142.631790,158.239639 142.818283,158.618332 143.004761,158.997009 
z"/>
<path fill="#070707" opacity="1.000000" stroke="none" 
	d="
M142.974319,158.576477 
	C142.818283,158.618332 142.631790,158.239639 142.600525,157.562042 
	C142.755737,157.263107 142.820129,157.332169 142.864594,157.322784 
	C142.920670,157.594238 142.932281,157.875092 142.974319,158.576477 
z"/>
<path fill="#ECECEC" opacity="1.000000" stroke="none" 
	d="
M56.603867,49.343525 
	C57.062496,48.419193 57.578739,47.504959 58.094982,46.590725 
	C58.380825,46.795780 58.666668,47.000839 58.952511,47.205898 
	C58.415741,47.861797 57.878971,48.517700 57.013683,49.320889 
	C56.685162,49.468178 56.661476,49.353622 56.603867,49.343525 
z"/>
</svg>